<svg xmlns="http://www.w3.org/2000/svg" version="1.1" xmlns:xlink="http://www.w3.org/1999/xlink" xmlns:svgjs="http://svgjs.dev/svgjs" width="1500" height="1500" viewBox="0 0 1500 1500"><rect width="1500" height="1500" fill="#ffffff"></rect><g transform="matrix(0.41305245766212306,0,0,0.41305245766212306,439.4351710118165,250.40485829959516)"><svg viewBox="0 0 153 247" data-background-color="#ffffff" preserveAspectRatio="xMidYMid meet" height="2421" width="1500" xmlns="http://www.w3.org/2000/svg" xmlns:xlink="http://www.w3.org/1999/xlink"><g id="tight-bounds" transform="matrix(1,0,0,1,0.1915000000000191,-0.09999999999999432)"><svg viewBox="0 0 152.61683040000003 247.2" height="247.2" width="152.61683040000003"><g><svg></svg></g><g><svg viewBox="0 0 152.61683040000003 247.2" height="247.2" width="152.61683040000003"><g transform="matrix(1,0,0,1,0,47.29158479999998)"><svg viewBox="0 0 152.61683040000003 152.61683040000003" height="152.61683040000003" width="152.61683040000003"><g><svg viewBox="0 0 152.61683040000003 152.61683040000003" height="152.61683040000003" width="152.61683040000003"><g><svg viewBox="0 0 152.61683040000003 152.61683040000003" height="152.61683040000003" width="152.61683040000003"><g id="textblocktransform"><svg viewBox="0 0 152.61683040000003 152.61683040000003" height="152.61683040000003" width="152.61683040000003" id="textblock"><g><svg viewBox="0 0 152.61683040000003 152.61683040000003" height="152.61683040000003" width="152.61683040000003"><g transform="matrix(1,0,0,1,31.34325032540115,31.34325032540115)"><svg viewBox="0 0 89.93032974919772 89.93032974919772" height="89.93032974919772" width="89.93032974919772"><g id="icon-0"><circle r="45" cx="44.96516487459886" cy="44.96516487459886" fill="#000000" data-fill-palette-color="accent"></circle><svg xmlns="http://www.w3.org/2000/svg" xmlns:xlink="http://www.w3.org/1999/xlink" version="1.1" x="13.489549462379658" y="13.489549462379658" viewBox="-240 362 70 70" enable-background="new -255 347 100 100" xml:space="preserve" height="62.95123082443841" width="62.95123082443841" class="icon-jxe-0" data-fill-palette-color="quaternary" id="jxe-0"><g fill="#ffffff" data-fill-palette-color="quaternary"><path d="M-205 362C-224.299 362-240 377.701-240 397S-224.299 432-205 432-170 416.299-170 397-185.701 362-205 362M-205 427C-221.569 427-235 413.569-235 397S-221.569 367-205 367-175 380.431-175 397-188.431 427-205 427" fill="#ffffff" data-fill-palette-color="quaternary"></path><path d="M-191.239 406.625C-195.041 409.98-199.927 411.829-205 411.829S-214.959 409.98-218.761 406.625A2.499 2.499 0 1 0-222.069 410.373 25.77 25.77 0 0 0-205 416.829 25.77 25.77 0 0 0-187.931 410.373 2.5 2.5 0 1 0-191.239 406.625" fill="#ffffff" data-fill-palette-color="quaternary"></path><path d="M-180.086 388.498H-182.815C-183.941 383.914-188.075 380.498-193.002 380.498-197.159 380.498-200.749 382.932-202.449 386.445A7.22 7.22 0 0 0-207.554 386.445C-209.254 382.933-212.844 380.498-217.001 380.498-221.928 380.498-226.061 383.914-227.188 388.498H-229.671A2.5 2.5 0 1 0-229.671 393.498H-227.188C-226.062 398.082-221.928 401.498-217.001 401.498-211.376 401.498-206.782 397.048-206.526 391.485-205.475 390.811-204.53 390.81-203.479 391.485-203.222 397.048-198.63 401.498-193.004 401.498-188.077 401.498-183.943 398.083-182.817 393.498H-180.088A2.5 2.5 0 0 0-180.086 388.498M-217 396.497C-220.033 396.497-222.5 394.03-222.5 390.997S-220.033 385.497-217 385.497-211.5 387.964-211.5 390.997-213.967 396.497-217 396.497M-193.002 396.497C-196.034 396.497-198.502 394.03-198.502 390.997S-196.034 385.497-193.002 385.497-187.502 387.964-187.502 390.997-189.97 396.497-193.002 396.497" fill="#ffffff" data-fill-palette-color="quaternary"></path></g></svg></g></svg></g><g id="text-0"><path d="M18.325 55.661v0c-0.431 1.223-1.119 2.204-2.064 2.944-0.94 0.748-2.072 1.202-3.396 1.362-1.327 0.151-2.785-0.053-4.373-0.613v0c-1.575-0.555-2.83-1.314-3.765-2.277-0.937-0.957-1.54-2.033-1.809-3.229-0.278-1.192-0.198-2.409 0.239-3.652v0c0.311-0.884 0.769-1.601 1.374-2.151 0.604-0.55 1.218-0.953 1.841-1.208v0l0.769 1.34c-0.549 0.231-1.035 0.557-1.457 0.977-0.426 0.411-0.749 0.931-0.97 1.558v0c-0.332 0.941-0.379 1.85-0.14 2.726 0.242 0.885 0.744 1.677 1.505 2.377 0.765 0.709 1.769 1.282 3.011 1.72v0c1.249 0.44 2.394 0.632 3.437 0.574 1.049-0.055 1.942-0.341 2.678-0.859 0.737-0.518 1.272-1.25 1.607-2.198v0c0.248-0.704 0.333-1.384 0.254-2.038-0.079-0.654-0.305-1.31-0.679-1.966v0l1.389-0.601c0.48 0.824 0.773 1.666 0.881 2.524 0.108 0.859-0.003 1.755-0.332 2.69z" fill="#000000" data-fill-palette-color="primary"></path><path d="M24.725 43.035v0c-0.363 0.582-0.809 0.892-1.338 0.93-0.519 0.036-1.121-0.16-1.806-0.588v0l-12.447-7.774 0.961-1.537 12.567 7.849c0.265 0.165 0.48 0.232 0.645 0.199 0.161-0.027 0.283-0.107 0.366-0.24v0c0.032-0.052 0.06-0.103 0.083-0.152 0.032-0.052 0.065-0.123 0.098-0.215v0l1.273 0.519c-0.022 0.138-0.066 0.291-0.13 0.459-0.063 0.177-0.153 0.361-0.272 0.55z" fill="#000000" data-fill-palette-color="primary"></path><path d="M33.463 32.941v0c-0.705 0.716-1.52 1.199-2.445 1.451-0.92 0.256-1.873 0.242-2.86-0.045-0.981-0.281-1.917-0.86-2.806-1.737v0c-0.885-0.872-1.48-1.802-1.785-2.788-0.3-0.982-0.348-1.925-0.143-2.829 0.205-0.894 0.615-1.654 1.23-2.277v0c1.015-1.03 2.145-1.489 3.389-1.379 1.239 0.116 2.449 0.755 3.629 1.918v0c0.3 0.295 0.539 0.56 0.718 0.795v0l-5.49 5.57c0.933 0.833 1.918 1.266 2.955 1.296 1.037 0.041 1.949-0.338 2.735-1.136v0c0.405-0.411 0.719-0.841 0.941-1.288 0.227-0.453 0.387-0.92 0.48-1.401v0l1.256 0.337c-0.106 0.601-0.294 1.193-0.564 1.775-0.265 0.588-0.678 1.167-1.24 1.738zM25.95 30.712v0l4.425-4.489c-0.856-0.844-1.687-1.306-2.494-1.387-0.802-0.076-1.528 0.215-2.176 0.873v0c-0.586 0.595-0.878 1.351-0.877 2.268-0.003 0.912 0.371 1.824 1.122 2.735z" fill="#000000" data-fill-palette-color="primary"></path><path d="M46.281 23.114l-1.815 1.072-9.408-7.762 1.604-0.947 5.294 4.538c0.436 0.405 0.873 0.805 1.312 1.2 0.448 0.398 0.889 0.792 1.324 1.181v0l0.088-0.051c-0.137-0.566-0.269-1.142-0.395-1.731-0.123-0.582-0.259-1.16-0.409-1.733v0l-1.426-6.822 1.526-0.901z" fill="#000000" data-fill-palette-color="primary"></path><path d="M60.786 17.425v0c-0.961 0.292-1.909 0.328-2.841 0.107-0.931-0.214-1.761-0.682-2.491-1.404-0.728-0.716-1.274-1.671-1.636-2.867v0c-0.361-1.189-0.44-2.29-0.237-3.302 0.205-1.006 0.614-1.857 1.226-2.554 0.607-0.688 1.33-1.159 2.168-1.414v0c1.384-0.42 2.596-0.284 3.636 0.408 1.034 0.694 1.791 1.833 2.272 3.418v0c0.122 0.403 0.206 0.75 0.252 1.041v0l-7.484 2.272c0.421 1.178 1.08 2.028 1.977 2.55 0.892 0.531 1.874 0.634 2.946 0.309v0c0.552-0.168 1.033-0.395 1.442-0.683 0.416-0.289 0.779-0.623 1.09-1.002v0l0.943 0.896c-0.38 0.477-0.828 0.908-1.343 1.291-0.513 0.39-1.153 0.701-1.92 0.934zM55.25 11.879v0l6.032-1.831c-0.349-1.15-0.859-1.953-1.53-2.409-0.669-0.45-1.445-0.541-2.328-0.273v0c-0.799 0.243-1.417 0.767-1.853 1.574-0.438 0.8-0.545 1.78-0.321 2.939z" fill="#000000" data-fill-palette-color="primary"></path><path d="M74.138 14.889l-1.809 0.118-0.748-11.442 1.504-0.099 0.308 2.052 0.04-0.003c0.36-0.738 0.804-1.342 1.331-1.811 0.534-0.464 1.127-0.717 1.777-0.76v0c0.488-0.032 0.896 0.02 1.225 0.155v0l-0.305 1.571c-0.166-0.044-0.324-0.071-0.475-0.081-0.144-0.011-0.334-0.009-0.571 0.007v0c-0.488 0.032-0.986 0.265-1.496 0.7-0.516 0.428-0.938 1.157-1.265 2.185v0z" fill="#000000" data-fill-palette-color="primary"></path><path d="M90.169 16.148l-4.838-0.833 2.638-15.315 4.476 0.771c1.566 0.27 2.783 0.779 3.653 1.528 0.862 0.755 1.179 1.794 0.951 3.119v0c-0.131 0.763-0.443 1.412-0.934 1.947-0.5 0.541-1.131 0.866-1.894 0.976v0l-0.018 0.101c0.884 0.345 1.569 0.873 2.053 1.583 0.491 0.711 0.646 1.592 0.465 2.643v0c-0.172 0.997-0.559 1.785-1.162 2.363-0.603 0.578-1.367 0.956-2.293 1.134-0.927 0.185-1.96 0.179-3.097-0.017zM89.533 1.778l-0.876 5.089 2.308 0.397c1.345 0.232 2.355 0.168 3.03-0.191 0.675-0.359 1.08-0.933 1.216-1.723v0c0.158-0.917-0.042-1.619-0.598-2.108-0.557-0.489-1.447-0.838-2.671-1.049v0zM88.416 8.262l-1.021 5.931 2.73 0.47c1.338 0.23 2.429 0.156 3.273-0.222 0.842-0.372 1.354-1.079 1.533-2.123v0c0.167-0.97-0.08-1.753-0.743-2.349-0.663-0.59-1.677-1.002-3.042-1.237v0z" fill="#000000" data-fill-palette-color="primary"></path><path d="M106.646 22.182v0c-0.835-0.409-1.508-1.003-2.019-1.782-0.52-0.776-0.802-1.674-0.847-2.694-0.048-1.014 0.209-2.094 0.769-3.24v0c0.561-1.146 1.26-2.018 2.096-2.614 0.833-0.59 1.717-0.921 2.652-0.993 0.929-0.075 1.81 0.092 2.646 0.502v0c0.842 0.412 1.521 1.009 2.037 1.791 0.517 0.782 0.798 1.683 0.843 2.703 0.042 1.026-0.217 2.112-0.779 3.258v0c-0.561 1.146-1.257 2.012-2.087 2.596-0.833 0.59-1.715 0.918-2.647 0.983-0.935 0.072-1.823-0.098-2.664-0.51zM107.309 20.828v0c0.915 0.448 1.841 0.44 2.778-0.023 0.934-0.457 1.699-1.293 2.292-2.507v0c0.594-1.214 0.788-2.336 0.582-3.366-0.209-1.025-0.771-1.761-1.686-2.208v0c-0.598-0.293-1.212-0.381-1.842-0.267-0.631 0.115-1.226 0.413-1.787 0.894-0.552 0.478-1.026 1.123-1.423 1.934v0c-0.594 1.214-0.788 2.328-0.582 3.344 0.209 1.025 0.765 1.758 1.668 2.199z" fill="#000000" data-fill-palette-color="primary"></path><path d="M120.749 31.985v0c-0.696-0.617-1.186-1.369-1.47-2.256-0.294-0.886-0.326-1.827-0.098-2.822 0.224-0.99 0.76-1.962 1.606-2.917v0c0.847-0.955 1.752-1.608 2.718-1.96 0.96-0.346 1.9-0.429 2.82-0.249 0.915 0.176 1.72 0.572 2.416 1.189v0c0.701 0.622 1.196 1.378 1.486 2.27 0.289 0.892 0.32 1.835 0.091 2.829-0.233 1-0.773 1.978-1.62 2.933v0c-0.847 0.955-1.748 1.603-2.704 1.945-0.96 0.346-1.898 0.427-2.814 0.241-0.92-0.18-1.73-0.581-2.431-1.203zM121.749 30.858v0c0.762 0.676 1.657 0.915 2.684 0.718 1.023-0.191 1.982-0.793 2.878-1.803v0c0.896-1.011 1.383-2.041 1.459-3.089 0.072-1.043-0.273-1.903-1.036-2.578v0c-0.498-0.441-1.066-0.691-1.704-0.749-0.638-0.058-1.292 0.071-1.961 0.385-0.659 0.314-1.288 0.809-1.887 1.484v0c-0.896 1.011-1.381 2.033-1.453 3.067-0.072 1.043 0.268 1.898 1.02 2.565z" fill="#000000" data-fill-palette-color="primary"></path><path d="M130.581 42.861l-0.987-1.496 14.084-9.294 0.988 1.496-9.648 6.366 0.034 0.051 7.894 0.794 1.116 1.692-5.957-0.669-3.323 7.427-1.093-1.658 2.804-5.938-3.362-0.453z" fill="#000000" data-fill-palette-color="primary"></path><path d="M138.092 58.509v0c-0.284-0.807-0.409-1.605-0.377-2.394 0.026-0.786 0.193-1.51 0.5-2.172v0l1.292 0.452c-0.225 0.59-0.351 1.181-0.38 1.775-0.029 0.593 0.078 1.236 0.321 1.927v0c0.257 0.73 0.625 1.216 1.105 1.457 0.474 0.244 0.951 0.281 1.432 0.113v0c0.384-0.135 0.66-0.365 0.826-0.69 0.164-0.331 0.267-0.716 0.307-1.155 0.047-0.441 0.07-0.895 0.072-1.363v0c0.012-0.601 0.06-1.191 0.145-1.768 0.092-0.579 0.281-1.095 0.568-1.548 0.289-0.447 0.728-0.774 1.318-0.981v0c0.846-0.297 1.675-0.229 2.49 0.205 0.814 0.434 1.427 1.236 1.839 2.408v0c0.236 0.673 0.338 1.331 0.305 1.976-0.024 0.649-0.136 1.242-0.335 1.78v0l-1.286-0.433c0.143-0.475 0.22-0.941 0.232-1.399 0.003-0.462-0.082-0.939-0.255-1.432v0c-0.25-0.711-0.595-1.173-1.037-1.385-0.441-0.212-0.87-0.245-1.286-0.098v0c-0.519 0.182-0.83 0.536-0.933 1.062-0.11 0.528-0.173 1.166-0.192 1.913v0c0.008 0.638-0.029 1.259-0.112 1.863-0.074 0.609-0.26 1.145-0.557 1.61-0.289 0.468-0.769 0.821-1.442 1.057v0c-0.878 0.308-1.745 0.235-2.603-0.219-0.862-0.446-1.514-1.299-1.957-2.561z" fill="#000000" data-fill-palette-color="primary"></path><path d="M5.773 79.367c0-1.068 0.866-1.934 1.934-1.934 1.068 0 1.934 0.866 1.934 1.934 0 1.068-0.866 1.934-1.934 1.934-1.068 0-1.934-0.866-1.934-1.934z" fill="#000000" data-fill-palette-color="primary"></path><path d="M145.659 79.367c0-1.068 0.866-1.934 1.934-1.934 1.068 0 1.934 0.866 1.934 1.934 0 1.068-0.866 1.934-1.934 1.934-1.068 0-1.934-0.866-1.934-1.934z" fill="#000000" data-fill-palette-color="primary"></path></g><g id="text-1"><path d="M8.019 101.562v0c-0.164-0.539-0.214-1.063-0.148-1.573 0.067-0.503 0.223-0.969 0.468-1.399v0l0.758 0.323c-0.216 0.364-0.348 0.755-0.398 1.175-0.048 0.426-0.01 0.841 0.113 1.243v0c0.156 0.513 0.395 0.877 0.715 1.092 0.321 0.215 0.67 0.265 1.046 0.15v0c0.266-0.081 0.464-0.202 0.593-0.362 0.129-0.16 0.219-0.354 0.27-0.582 0.045-0.226 0.083-0.472 0.116-0.738v0l0.155-1.239c0.033-0.265 0.09-0.542 0.173-0.83 0.091-0.283 0.24-0.541 0.446-0.775 0.197-0.237 0.481-0.413 0.851-0.525v0c0.383-0.117 0.756-0.117 1.118 0 0.36 0.11 0.679 0.319 0.956 0.625 0.282 0.297 0.491 0.67 0.628 1.118v0c0.14 0.461 0.18 0.907 0.12 1.337-0.061 0.43-0.178 0.814-0.353 1.15v0l-0.755-0.313c0.152-0.295 0.245-0.607 0.279-0.936 0.041-0.332 0.011-0.663-0.09-0.995v0c-0.13-0.429-0.34-0.745-0.629-0.947-0.28-0.199-0.596-0.244-0.946-0.138v0c-0.247 0.075-0.429 0.198-0.548 0.369-0.123 0.179-0.207 0.382-0.251 0.609-0.047 0.22-0.081 0.444-0.105 0.67v0l-0.132 1.211c-0.032 0.336-0.101 0.648-0.205 0.936-0.098 0.285-0.251 0.538-0.461 0.758-0.212 0.214-0.506 0.378-0.883 0.492v0c-0.396 0.121-0.785 0.125-1.166 0.014-0.388-0.109-0.734-0.323-1.037-0.642-0.305-0.326-0.538-0.752-0.697-1.278z" fill="#000000" data-fill-palette-color="primary"></path><path d="M10.255 107.258l-0.374-0.848 5.329-2.352 0.309 0.699-0.746 0.429 0.008 0.019c0.365 0.121 0.699 0.281 1.003 0.482 0.297 0.203 0.517 0.466 0.66 0.788v0c0.178 0.404 0.225 0.762 0.14 1.074-0.076 0.316-0.25 0.593-0.524 0.832v0c0.424 0.154 0.797 0.335 1.119 0.542 0.321 0.207 0.552 0.469 0.691 0.785v0c0.238 0.54 0.24 1.022 0.004 1.446-0.233 0.43-0.689 0.794-1.366 1.092v0l-3.391 1.497-0.374-0.848 3.279-1.447c0.509-0.225 0.843-0.469 1.002-0.732 0.162-0.272 0.166-0.582 0.013-0.929v0c-0.181-0.41-0.669-0.744-1.466-1.001v0l-3.885 1.715-0.374-0.848 3.279-1.448c0.509-0.225 0.842-0.472 0.998-0.74 0.165-0.266 0.169-0.576 0.013-0.93v0c-0.181-0.41-0.668-0.74-1.462-0.991v0z" fill="#000000" data-fill-palette-color="primary"></path><path d="M15.207 117.544v0c-0.252-0.419-0.341-0.841-0.265-1.267 0.07-0.423 0.332-0.771 0.786-1.045v0c0.547-0.33 1.114-0.335 1.702-0.016 0.598 0.321 1.281 0.98 2.048 1.976v0c0.221-0.133 0.411-0.291 0.57-0.474 0.163-0.177 0.262-0.38 0.299-0.609 0.031-0.225-0.038-0.477-0.206-0.756v0c-0.179-0.297-0.401-0.539-0.665-0.728-0.274-0.192-0.53-0.346-0.768-0.465v0l0.334-0.629c0.29 0.126 0.607 0.316 0.95 0.569 0.343 0.253 0.637 0.583 0.882 0.99v0c0.365 0.605 0.442 1.153 0.231 1.644-0.217 0.495-0.63 0.927-1.241 1.296v0l-3.078 1.856-0.395-0.654 0.565-0.424-0.021-0.035c-0.341-0.119-0.668-0.279-0.979-0.48-0.314-0.191-0.563-0.441-0.749-0.749zM15.975 117.378v0c0.151 0.25 0.349 0.448 0.595 0.593 0.25 0.151 0.562 0.288 0.937 0.41v0l1.439-0.868c-0.417-0.534-0.785-0.934-1.104-1.201-0.323-0.273-0.613-0.431-0.87-0.475-0.256-0.044-0.495 0.001-0.715 0.134v0c-0.291 0.175-0.45 0.39-0.479 0.646-0.023 0.252 0.043 0.505 0.197 0.761z" fill="#000000" data-fill-palette-color="primary"></path><path d="M18.96 122.943l-0.546-0.749 4.711-3.427 0.449 0.617-0.794 0.691 0.012 0.017c0.416-0.051 0.796-0.025 1.14 0.078 0.343 0.103 0.613 0.289 0.808 0.557v0c0.148 0.203 0.235 0.392 0.261 0.566v0l-0.754 0.297c-0.026-0.082-0.055-0.157-0.088-0.226-0.038-0.064-0.094-0.146-0.166-0.244v0c-0.144-0.198-0.38-0.349-0.708-0.455-0.324-0.1-0.751-0.079-1.278 0.061v0z" fill="#000000" data-fill-palette-color="primary"></path><path d="M22.542 127.654v0c-0.394-0.467-0.535-0.908-0.423-1.322 0.116-0.409 0.395-0.8 0.836-1.172v0l2.514-2.122-0.559-0.662 0.545-0.46 0.623 0.674 1.519-1.136 0.493 0.584-1.447 1.222 1.038 1.229-0.576 0.486-1.038-1.229-2.537 2.141c-0.275 0.232-0.444 0.464-0.507 0.695-0.072 0.23 0.003 0.477 0.227 0.742v0c0.066 0.078 0.144 0.154 0.233 0.229 0.09 0.075 0.193 0.139 0.309 0.192v0l-0.366 0.576c-0.153-0.076-0.306-0.168-0.461-0.277-0.159-0.115-0.3-0.245-0.423-0.39z" fill="#000000" data-fill-palette-color="primary"></path><path d="M28.853 133.839l-0.701-0.622 5.235-5.907 1.829 1.622c0.401 0.356 0.71 0.72 0.924 1.091 0.215 0.381 0.306 0.77 0.273 1.167-0.043 0.397-0.245 0.799-0.606 1.205v0c-0.342 0.386-0.715 0.632-1.117 0.738-0.403 0.096-0.816 0.071-1.238-0.077-0.417-0.143-0.827-0.393-1.228-0.748v0l-1.128-1zM33.581 128.504l-1.985 2.24 1.021 0.905c0.467 0.414 0.911 0.635 1.331 0.663 0.425 0.032 0.811-0.147 1.158-0.539v0c0.356-0.401 0.476-0.793 0.362-1.176-0.109-0.378-0.398-0.774-0.865-1.188v0zM32.191 136.797l-0.785-0.696 0.849-4.12 0.867 0.157z" fill="#000000" data-fill-palette-color="primary"></path><path d="M35.887 139.628v0c-0.42-0.3-0.727-0.67-0.921-1.11-0.2-0.444-0.27-0.924-0.209-1.44 0.061-0.516 0.275-1.031 0.642-1.544v0c0.371-0.519 0.792-0.89 1.261-1.114 0.473-0.229 0.943-0.331 1.409-0.306 0.468 0.034 0.884 0.182 1.249 0.443v0c0.596 0.427 0.915 0.956 0.956 1.586 0.041 0.631-0.185 1.291-0.679 1.981v0c-0.123 0.171-0.236 0.312-0.34 0.421v0l-3.229-2.312c-0.345 0.529-0.485 1.056-0.417 1.58 0.067 0.524 0.33 0.95 0.788 1.278v0c0.243 0.174 0.483 0.3 0.719 0.377 0.246 0.076 0.494 0.12 0.745 0.133v0l-0.067 0.653c-0.313-0.007-0.625-0.055-0.936-0.144-0.316-0.084-0.639-0.245-0.971-0.482zM36.409 135.68v0l2.6 1.862c0.356-0.497 0.522-0.95 0.498-1.36-0.024-0.41-0.227-0.751-0.608-1.023v0c-0.342-0.245-0.744-0.332-1.204-0.261-0.464 0.077-0.893 0.338-1.286 0.782z" fill="#000000" data-fill-palette-color="primary"></path><path d="M40.874 142.817v0c-0.422-0.247-0.702-0.576-0.838-0.986-0.141-0.405-0.077-0.836 0.19-1.293v0c0.322-0.551 0.818-0.827 1.487-0.829 0.679-0.004 1.593 0.248 2.744 0.756v0c0.13-0.223 0.221-0.453 0.273-0.69 0.058-0.234 0.048-0.459-0.028-0.677-0.08-0.212-0.261-0.401-0.543-0.565v0c-0.299-0.175-0.61-0.282-0.932-0.322-0.332-0.037-0.631-0.051-0.897-0.04v0l-0.008-0.713c0.315-0.028 0.684-0.013 1.106 0.045 0.422 0.058 0.838 0.207 1.249 0.448v0c0.609 0.357 0.939 0.801 0.989 1.333 0.047 0.539-0.11 1.116-0.469 1.731v0l-1.816 3.103-0.659-0.385 0.293-0.643-0.035-0.02c-0.357 0.059-0.72 0.074-1.089 0.047-0.367-0.018-0.706-0.118-1.017-0.3zM41.47 142.304v0c0.252 0.147 0.521 0.226 0.806 0.236 0.291 0.013 0.631-0.016 1.019-0.089v0l0.848-1.45c-0.621-0.269-1.136-0.444-1.544-0.526-0.414-0.085-0.744-0.085-0.991-0.001-0.246 0.084-0.434 0.238-0.564 0.46v0c-0.171 0.293-0.209 0.558-0.112 0.796 0.1 0.232 0.28 0.423 0.538 0.574z" fill="#000000" data-fill-palette-color="primary"></path><path d="M47.704 146.326v0c-0.661-0.302-1.081-0.786-1.262-1.451-0.175-0.662-0.06-1.435 0.344-2.318v0c0.263-0.574 0.595-1.023 0.997-1.346 0.408-0.321 0.839-0.512 1.293-0.574 0.456-0.067 0.885-0.009 1.286 0.175v0c0.309 0.141 0.552 0.32 0.73 0.535 0.187 0.212 0.349 0.47 0.486 0.772v0l0.392-0.929 0.946-2.065 0.842 0.385-3.569 7.797-0.703-0.322 0.223-0.659-0.028-0.013c-0.303 0.108-0.629 0.175-0.977 0.202-0.346 0.021-0.679-0.042-1-0.189zM48.211 145.707v0c0.253 0.116 0.519 0.163 0.798 0.142 0.279-0.022 0.593-0.105 0.944-0.252v0l1.297-2.833c-0.141-0.311-0.299-0.562-0.473-0.754-0.177-0.185-0.376-0.329-0.598-0.431v0c-0.296-0.136-0.601-0.171-0.915-0.105-0.317 0.072-0.618 0.232-0.904 0.482-0.286 0.25-0.524 0.582-0.713 0.996v0c-0.294 0.642-0.396 1.208-0.306 1.696 0.099 0.486 0.389 0.839 0.87 1.059z" fill="#000000" data-fill-palette-color="primary"></path><path d="M54.385 148.961v0c-0.411-0.141-0.769-0.342-1.074-0.604-0.307-0.256-0.544-0.549-0.711-0.879v0l0.589-0.368c0.165 0.272 0.361 0.507 0.587 0.706 0.228 0.193 0.519 0.35 0.873 0.471v0c0.373 0.128 0.682 0.136 0.927 0.027 0.248-0.116 0.414-0.296 0.497-0.541v0c0.066-0.193 0.06-0.374-0.018-0.544-0.078-0.17-0.198-0.333-0.36-0.489-0.162-0.156-0.336-0.309-0.522-0.458v0c-0.243-0.191-0.464-0.396-0.661-0.614-0.204-0.221-0.35-0.457-0.436-0.709-0.092-0.254-0.087-0.532 0.016-0.834v0c0.147-0.43 0.436-0.74 0.868-0.93 0.431-0.19 0.945-0.182 1.542 0.022v0c0.34 0.117 0.635 0.282 0.885 0.496 0.249 0.215 0.449 0.448 0.6 0.701v0l-0.57 0.375c-0.151-0.209-0.316-0.388-0.495-0.535-0.179-0.147-0.394-0.264-0.644-0.35v0c-0.366-0.125-0.661-0.133-0.886-0.023-0.224 0.11-0.373 0.271-0.445 0.483v0c-0.09 0.263-0.046 0.501 0.133 0.712 0.181 0.205 0.416 0.43 0.706 0.673v0c0.254 0.202 0.491 0.412 0.71 0.63 0.217 0.225 0.371 0.468 0.461 0.728 0.097 0.263 0.086 0.568-0.033 0.915v0c-0.152 0.443-0.452 0.764-0.899 0.962-0.45 0.205-0.997 0.197-1.639-0.023z" fill="#000000" data-fill-palette-color="primary"></path><path d="M64.242 151.393l-0.91-0.175 1.287-6.691c0.112-0.58 0.336-1.01 0.674-1.291 0.331-0.282 0.776-0.369 1.336-0.261v0c0.16 0.031 0.323 0.083 0.489 0.156 0.16 0.065 0.292 0.136 0.395 0.211v0l-0.327 0.621c-0.225-0.126-0.434-0.208-0.627-0.245v0c-0.54-0.104-0.884 0.227-1.032 0.994v0zM66.43 146.649l-2.92-0.562 0.135-0.7 0.817 0.116 2.111 0.406z" fill="#000000" data-fill-palette-color="primary"></path><path d="M69.693 152.314v0c-0.465-0.055-0.886-0.224-1.263-0.506-0.376-0.29-0.663-0.672-0.86-1.147-0.197-0.481-0.257-1.042-0.183-1.683v0c0.076-0.647 0.265-1.182 0.568-1.605 0.303-0.429 0.671-0.738 1.103-0.926 0.433-0.195 0.882-0.266 1.348-0.211v0c0.479 0.056 0.906 0.229 1.282 0.519 0.384 0.284 0.67 0.67 0.859 1.157 0.197 0.481 0.257 1.045 0.181 1.692v0c-0.075 0.641-0.264 1.172-0.566 1.595-0.295 0.417-0.662 0.722-1.102 0.917-0.432 0.189-0.888 0.255-1.367 0.198zM69.782 151.556v0c0.519 0.061 0.965-0.099 1.338-0.479 0.366-0.381 0.588-0.909 0.667-1.583v0c0.081-0.688-0.013-1.259-0.281-1.714-0.275-0.456-0.672-0.714-1.19-0.776v0c-0.33-0.039-0.638 0.021-0.924 0.179-0.286 0.165-0.519 0.407-0.7 0.728-0.189 0.327-0.31 0.719-0.364 1.178v0c-0.079 0.674 0.019 1.239 0.294 1.695 0.268 0.455 0.655 0.713 1.16 0.772z" fill="#000000" data-fill-palette-color="primary"></path><path d="M75.84 152.617l-0.927-0.028 0.173-5.822 0.763 0.022 0.061 1.051 0.02 0.001c0.214-0.36 0.467-0.645 0.759-0.854 0.291-0.209 0.603-0.308 0.936-0.298v0c0.251 0.007 0.453 0.054 0.607 0.14v0l-0.227 0.778c-0.081-0.03-0.158-0.052-0.232-0.068-0.074-0.009-0.173-0.015-0.295-0.019v0c-0.244-0.007-0.509 0.087-0.793 0.282-0.277 0.196-0.522 0.545-0.734 1.048v0z" fill="#000000" data-fill-palette-color="primary"></path><path d="M86.888 152.161v0c-0.56 0.067-1.084 0.024-1.574-0.129-0.483-0.154-0.915-0.389-1.295-0.706v0l0.45-0.69c0.32 0.276 0.683 0.475 1.087 0.598 0.411 0.122 0.826 0.157 1.244 0.107v0c0.533-0.064 0.933-0.235 1.2-0.513 0.268-0.278 0.378-0.613 0.331-1.004v0c-0.033-0.276-0.117-0.492-0.252-0.647-0.135-0.155-0.31-0.277-0.526-0.367-0.215-0.084-0.451-0.165-0.706-0.244v0l-1.193-0.37c-0.256-0.079-0.518-0.184-0.787-0.316-0.263-0.139-0.491-0.331-0.684-0.574-0.199-0.236-0.322-0.546-0.368-0.93v0c-0.048-0.398 0.018-0.765 0.196-1.101 0.172-0.335 0.433-0.613 0.782-0.832 0.342-0.226 0.746-0.366 1.211-0.422v0c0.479-0.057 0.924-0.019 1.338 0.116 0.413 0.135 0.77 0.318 1.071 0.549v0l-0.441 0.689c-0.263-0.201-0.554-0.347-0.873-0.439-0.32-0.098-0.651-0.127-0.995-0.086v0c-0.445 0.053-0.793 0.204-1.043 0.453-0.245 0.241-0.345 0.544-0.302 0.908v0c0.031 0.256 0.12 0.457 0.268 0.604 0.155 0.152 0.34 0.27 0.555 0.354 0.208 0.084 0.422 0.158 0.642 0.221v0l1.169 0.341c0.325 0.091 0.62 0.213 0.885 0.366 0.264 0.146 0.485 0.342 0.665 0.587 0.173 0.246 0.283 0.564 0.33 0.955v0c0.049 0.411-0.014 0.795-0.19 1.152-0.175 0.363-0.447 0.666-0.814 0.907-0.374 0.243-0.834 0.398-1.381 0.463z" fill="#000000" data-fill-palette-color="primary"></path><path d="M92.888 150.959l-0.9 0.22-1.382-5.659 0.742-0.182 0.292 0.81 0.02-0.005c0.183-0.338 0.4-0.639 0.65-0.903 0.252-0.257 0.549-0.428 0.892-0.511v0c0.429-0.105 0.789-0.088 1.081 0.05 0.297 0.13 0.54 0.35 0.728 0.661v0c0.226-0.391 0.469-0.726 0.729-1.006 0.26-0.28 0.558-0.461 0.895-0.544v0c0.574-0.14 1.048-0.057 1.424 0.25 0.382 0.305 0.661 0.817 0.836 1.536v0l0.879 3.601-0.9 0.22-0.85-3.482c-0.132-0.541-0.314-0.912-0.545-1.115-0.239-0.207-0.544-0.266-0.913-0.175v0c-0.435 0.106-0.849 0.529-1.242 1.268v0l1.007 4.125-0.9 0.22-0.85-3.483c-0.132-0.541-0.317-0.912-0.555-1.112-0.233-0.209-0.537-0.267-0.913-0.175v0c-0.435 0.106-0.846 0.528-1.232 1.265v0z" fill="#000000" data-fill-palette-color="primary"></path><path d="M103.883 147.884v0c-0.456 0.175-0.888 0.188-1.294 0.039-0.404-0.143-0.701-0.462-0.891-0.956v0c-0.229-0.596-0.135-1.156 0.282-1.679 0.421-0.533 1.189-1.09 2.304-1.671v0c-0.093-0.241-0.215-0.456-0.368-0.644-0.146-0.191-0.328-0.325-0.547-0.401-0.216-0.07-0.476-0.046-0.78 0.07v0c-0.323 0.124-0.601 0.3-0.833 0.528-0.236 0.236-0.434 0.461-0.592 0.675v0l-0.562-0.439c0.175-0.264 0.417-0.542 0.727-0.836 0.309-0.293 0.686-0.525 1.129-0.695v0c0.659-0.253 1.212-0.233 1.66 0.06 0.45 0.3 0.803 0.783 1.058 1.448v0l1.289 3.356-0.713 0.274-0.318-0.63-0.038 0.014c-0.177 0.315-0.392 0.609-0.644 0.88-0.243 0.275-0.533 0.478-0.869 0.607zM103.854 147.099v0c0.273-0.105 0.502-0.265 0.688-0.483 0.192-0.219 0.381-0.503 0.567-0.851v0l-0.602-1.568c-0.598 0.317-1.057 0.61-1.376 0.878-0.325 0.27-0.532 0.528-0.62 0.772-0.088 0.245-0.085 0.487 0.007 0.728v0c0.122 0.317 0.306 0.512 0.552 0.585 0.244 0.066 0.505 0.046 0.784-0.061z" fill="#000000" data-fill-palette-color="primary"></path><path d="M109.856 145.133l-0.834 0.406-2.551-5.237 0.687-0.335 0.542 0.903 0.018-0.009c0.023-0.419 0.114-0.788 0.275-1.108 0.161-0.32 0.391-0.553 0.691-0.699v0c0.226-0.11 0.427-0.163 0.603-0.158v0l0.16 0.794c-0.085 0.011-0.164 0.027-0.237 0.048-0.07 0.027-0.16 0.067-0.27 0.12v0c-0.22 0.107-0.41 0.313-0.571 0.618-0.155 0.302-0.209 0.725-0.164 1.269v0z" fill="#000000" data-fill-palette-color="primary"></path><path d="M115.12 142.429v0c-0.529 0.306-0.987 0.368-1.376 0.186-0.383-0.186-0.719-0.529-1.008-1.029v0l-1.65-2.846-0.749 0.434-0.357-0.616 0.773-0.495-0.854-1.695 0.661-0.383 0.95 1.639 1.392-0.807 0.378 0.652-1.392 0.807 1.665 2.872c0.18 0.311 0.379 0.518 0.595 0.62 0.214 0.112 0.47 0.08 0.77-0.093v0c0.088-0.051 0.177-0.114 0.267-0.19 0.09-0.075 0.171-0.166 0.243-0.27v0l0.503 0.461c-0.101 0.137-0.219 0.272-0.353 0.405-0.141 0.136-0.293 0.252-0.458 0.348z" fill="#000000" data-fill-palette-color="primary"></path><path d="M119.713 139.416v0c-0.425 0.292-0.878 0.455-1.358 0.488-0.485 0.037-0.96-0.061-1.425-0.293-0.465-0.233-0.876-0.609-1.233-1.13v0c-0.362-0.526-0.568-1.047-0.618-1.564-0.055-0.523 0.009-0.999 0.191-1.43 0.192-0.428 0.472-0.769 0.841-1.023v0c0.604-0.415 1.21-0.535 1.817-0.359 0.607 0.176 1.151 0.614 1.632 1.313v0c0.119 0.173 0.213 0.327 0.281 0.462v0l-3.273 2.25c0.38 0.505 0.828 0.815 1.343 0.93 0.516 0.115 1.006 0.013 1.47-0.306v0c0.246-0.169 0.446-0.352 0.6-0.548 0.155-0.206 0.281-0.424 0.378-0.655v0l0.591 0.285c-0.113 0.292-0.264 0.569-0.454 0.831-0.186 0.268-0.447 0.518-0.783 0.749zM116.178 137.582v0l2.636-1.812c-0.346-0.504-0.716-0.814-1.11-0.93-0.393-0.117-0.783-0.043-1.169 0.222v0c-0.347 0.238-0.565 0.586-0.654 1.044-0.086 0.463 0.014 0.955 0.297 1.476z" fill="#000000" data-fill-palette-color="primary"></path><path d="M123.987 136.001l-0.718 0.586-3.684-4.512 0.592-0.483 0.734 0.754 0.016-0.013c-0.074-0.413-0.069-0.794 0.014-1.142 0.084-0.349 0.254-0.628 0.512-0.838v0c0.195-0.159 0.378-0.256 0.551-0.292v0l0.338 0.736c-0.08 0.03-0.154 0.064-0.22 0.101-0.062 0.042-0.141 0.102-0.236 0.179v0c-0.189 0.155-0.327 0.399-0.414 0.733-0.082 0.33-0.038 0.754 0.132 1.272v0z" fill="#000000" data-fill-palette-color="primary"></path><path d="M131.045 129.275l-0.563 0.631-5.887-5.258 0.76-0.851 4.215 1.703c0.275 0.109 0.546 0.219 0.812 0.329 0.266 0.12 0.535 0.237 0.806 0.351v0l0.034-0.038c-0.144-0.256-0.291-0.51-0.44-0.761-0.144-0.247-0.288-0.498-0.432-0.755v0l-2.179-3.981 0.766-0.858 5.887 5.258-0.584 0.653-3.334-2.978c-0.258-0.231-0.545-0.505-0.862-0.825-0.316-0.319-0.594-0.604-0.834-0.854v0l-0.034 0.038 0.976 1.705 2.111 3.92-0.434 0.486-4.126-1.664-1.811-0.771-0.033 0.038c0.276 0.21 0.588 0.457 0.936 0.741 0.352 0.278 0.658 0.533 0.916 0.763v0z" fill="#000000" data-fill-palette-color="primary"></path><path d="M137.189 121.805l-0.548 0.748-4.699-3.443 0.547-0.747zM131.23 117.996v0c-0.112 0.153-0.247 0.24-0.404 0.259-0.161 0.025-0.321-0.021-0.48-0.137v0c-0.142-0.104-0.226-0.237-0.251-0.398-0.029-0.156 0.013-0.31 0.125-0.464v0c0.108-0.148 0.243-0.234 0.404-0.259 0.161-0.025 0.313 0.015 0.456 0.119v0c0.159 0.116 0.251 0.255 0.275 0.416 0.025 0.161-0.017 0.316-0.125 0.464z" fill="#000000" data-fill-palette-color="primary"></path><path d="M139.291 118.568l-0.489 0.787-4.948-3.075 0.403-0.649 0.758 0.363 0.011-0.017c-0.089-0.383-0.131-0.761-0.124-1.132 0.003-0.366 0.113-0.721 0.328-1.068v0c0.319-0.513 0.718-0.789 1.197-0.826 0.479-0.038 1.033 0.139 1.662 0.529v0l3.148 1.957-0.478 0.77-3.045-1.893c-0.473-0.294-0.864-0.429-1.174-0.406-0.312 0.014-0.576 0.194-0.792 0.54v0c-0.158 0.254-0.232 0.527-0.222 0.821 0.004 0.29 0.056 0.643 0.158 1.057v0z" fill="#000000" data-fill-palette-color="primary"></path><path d="M143.556 111.083v0c-0.316 0.654-0.808 1.065-1.476 1.233-0.666 0.161-1.436 0.031-2.311-0.391v0c-0.569-0.274-1.011-0.616-1.326-1.024-0.313-0.415-0.495-0.849-0.547-1.304-0.058-0.458 0.009-0.885 0.2-1.283v0c0.147-0.306 0.331-0.545 0.55-0.718 0.216-0.182 0.476-0.339 0.782-0.471v0l-0.922-0.411-2.045-0.987 0.402-0.834 7.724 3.725-0.336 0.697-0.655-0.237-0.013 0.028c0.102 0.305 0.162 0.632 0.182 0.981 0.014 0.346-0.056 0.678-0.209 0.996zM142.948 110.563v0c0.121-0.251 0.173-0.516 0.157-0.794-0.016-0.279-0.093-0.595-0.232-0.949v0l-2.807-1.354c-0.314 0.135-0.568 0.287-0.764 0.457-0.189 0.173-0.336 0.369-0.442 0.59v0c-0.142 0.294-0.183 0.598-0.124 0.912 0.065 0.318 0.22 0.622 0.464 0.914 0.244 0.291 0.571 0.535 0.981 0.733v0c0.636 0.307 1.199 0.42 1.69 0.34 0.488-0.089 0.846-0.372 1.077-0.849z" fill="#000000" data-fill-palette-color="primary"></path><path d="M146.326 104.457v0c-0.149 0.408-0.358 0.762-0.627 1.061-0.262 0.302-0.56 0.533-0.892 0.693v0l-0.357-0.596c0.275-0.16 0.515-0.351 0.718-0.573 0.198-0.224 0.36-0.512 0.489-0.862v0c0.135-0.37 0.15-0.679 0.045-0.927-0.111-0.25-0.288-0.419-0.53-0.508v0c-0.191-0.07-0.373-0.067-0.544 0.008-0.172 0.075-0.337 0.191-0.497 0.35-0.159 0.159-0.315 0.329-0.469 0.511v0c-0.196 0.239-0.405 0.456-0.627 0.65-0.225 0.2-0.464 0.34-0.717 0.421-0.256 0.087-0.534 0.076-0.834-0.034v0c-0.427-0.156-0.731-0.451-0.912-0.886-0.181-0.435-0.163-0.949 0.053-1.541v0c0.123-0.338 0.295-0.63 0.515-0.875 0.22-0.245 0.457-0.44 0.712-0.586v0l0.364 0.578c-0.212 0.146-0.394 0.308-0.545 0.484-0.151 0.176-0.272 0.389-0.363 0.637v0c-0.133 0.364-0.146 0.658-0.041 0.885 0.105 0.226 0.263 0.378 0.473 0.455v0c0.261 0.095 0.5 0.056 0.716-0.119 0.209-0.177 0.438-0.408 0.686-0.692v0c0.207-0.25 0.422-0.482 0.645-0.697 0.229-0.213 0.475-0.361 0.737-0.446 0.265-0.091 0.569-0.074 0.914 0.051v0c0.44 0.161 0.755 0.467 0.944 0.919 0.195 0.454 0.177 1.001-0.056 1.639z" fill="#000000" data-fill-palette-color="primary"></path><path d="M147.844 99.847v0c-0.054 0.182-0.161 0.317-0.322 0.403-0.169 0.091-0.357 0.106-0.565 0.045v0c-0.202-0.06-0.352-0.175-0.45-0.347-0.093-0.162-0.113-0.335-0.059-0.516v0c0.052-0.176 0.163-0.309 0.332-0.401 0.175-0.09 0.364-0.104 0.566-0.044v0c0.208 0.062 0.358 0.177 0.449 0.346 0.085 0.167 0.101 0.338 0.049 0.514z" fill="#000000" data-fill-palette-color="primary"></path></g></svg></g></svg></g></svg></g><g></g></svg></g></svg></g><path d="M0 41.292L0 1 152.617 1 152.617 41.292 151.984 41.292 151.984 1.633 0.633 1.633 0.633 41.292 0 41.292M0 205.908L0 246.2 152.617 246.2 152.617 205.908 151.984 205.908 151.984 245.567 0.633 245.567 0.633 205.908 0 205.908" fill="#000000" stroke="transparent" data-fill-palette-color="tertiary"></path></svg></g><defs></defs></svg><rect width="152.61683040000003" height="247.2" fill="none" stroke="none" visibility="hidden"></rect></g></svg></g></svg>